<svg width="49" height="49" viewBox="0 0 49 49" fill="none" xmlns="http://www.w3.org/2000/svg">
<path d="M3.5 12.25H45.5" stroke="white" stroke-width="2" stroke-linecap="round" stroke-linejoin="round"/>
<path d="M8.75 12.25H40.25V43.75C40.25 44.6782 39.8811 45.5686 39.2248 46.2248C38.5686 46.8811 37.6782 47.25 36.75 47.25H12.25C11.3217 47.25 10.4315 46.8811 9.77512 46.2248C9.11876 45.5686 8.75 44.6782 8.75 43.75V12.25Z" stroke="white" stroke-width="2" stroke-linecap="round" stroke-linejoin="round"/>
<path d="M15.75 12.25V10.5C15.75 8.17936 16.6719 5.95374 18.3128 4.3128C19.9537 2.67187 22.1794 1.75 24.5 1.75C26.8206 1.75 29.0463 2.67187 30.6872 4.3128C32.3281 5.95374 33.25 8.17936 33.25 10.5V12.25" stroke="white" stroke-width="2" stroke-linecap="round" stroke-linejoin="round"/>
<path d="M19.25 22.7551V36.7605" stroke="white" stroke-width="2" stroke-linecap="round" stroke-linejoin="round"/>
<path d="M29.75 22.7551V36.7605" stroke="white" stroke-width="2" stroke-linecap="round" stroke-linejoin="round"/>
</svg>
