<svg width="49" height="49" viewBox="0 0 49 49" fill="none" xmlns="http://www.w3.org/2000/svg">
<g clip-path="url(#clip0_107_34)">
<path d="M17.5 42.8401L1.75 47.2501L6.16 31.5001L35 2.80013C35.3258 2.46677 35.7154 2.2019 36.1448 2.02106C36.5746 1.84022 37.0363 1.74707 37.5025 1.74707C37.9687 1.74707 38.4303 1.84022 38.8601 2.02106C39.2896 2.2019 39.6791 2.46677 40.005 2.80013L46.2 9.03013C46.5279 9.35549 46.7883 9.74262 46.9661 10.1691C47.1439 10.5956 47.2353 11.0531 47.2353 11.5151C47.2353 11.9772 47.1439 12.4346 46.9661 12.8612C46.7883 13.2877 46.5279 13.6748 46.2 14.0001L17.5 42.8401Z" stroke="white" stroke-width="2" stroke-linecap="round" stroke-linejoin="round"/>
</g>
<defs>
<clipPath id="clip0_107_34">
<rect width="49" height="49" fill="white"/>
</clipPath>
</defs>
</svg>
