<svg width="37" height="20" viewBox="0 0 37 20" fill="none" xmlns="http://www.w3.org/2000/svg">
<path fill-rule="evenodd" clip-rule="evenodd" d="M1 2H36V1H1V2ZM36 11H1V10H36V11ZM36 19H1V18H36V19Z" fill="#F5F5F5"/>
<path d="M36 2V2.65H36.65V2H36ZM1 2H0.35V2.65H1V2ZM36 1H36.65V0.35H36V1ZM1 1V0.35H0.35V1H1ZM1 11H0.35V11.65H1V11ZM36 11V11.65H36.65V11H36ZM1 10V9.35H0.35V10H1ZM36 10H36.65V9.35H36V10ZM1 19H0.35V19.65H1V19ZM36 19V19.65H36.65V19H36ZM1 18V17.35H0.35V18H1ZM36 18H36.65V17.35H36V18ZM36 1.35H1V2.65H36V1.35ZM35.35 1V2H36.65V1H35.35ZM1 1.65H36V0.35H1V1.65ZM1.65 2V1H0.35V2H1.65ZM1 11.65H36V10.35H1V11.65ZM0.35 10V11H1.65V10H0.35ZM36 9.35H1V10.65H36V9.35ZM36.65 11V10H35.35V11H36.65ZM1 19.65H36V18.35H1V19.65ZM0.35 18V19H1.65V18H0.35ZM36 17.35H1V18.65H36V17.35ZM36.65 19V18H35.35V19H36.65Z" fill="#F5F5F5"/>
</svg>
